<svg xmlns="http://www.w3.org/2000/svg" viewBox="261.42 240.82 318.94 113.18" width="319" height="113" role="img" aria-label="pi*VMA com BraCVAM e Fiocruz (guia p.1)">
<title>pi*VMA com BraCVAM e Fiocruz (guia p.1)</title>
<path d="M 502.476562 252.203125 L 489.785156 252.203125 C 485.472656 252.203125 481.578125 254 478.789062 256.875 C 476 254 472.105469 252.203125 467.792969 252.203125 L 455.101562 252.203125 C 446.648438 252.203125 439.769531 259.082031 439.769531 267.539062 L 439.769531 305.035156 L 448.445312 305.035156 L 448.445312 267.539062 C 448.445312 263.867188 451.433594 260.882812 455.101562 260.882812 L 467.792969 260.882812 C 471.464844 260.882812 474.449219 263.867188 474.449219 267.539062 L 474.449219 305.035156 L 483.128906 305.035156 L 483.128906 267.539062 C 483.128906 263.867188 486.113281 260.882812 489.785156 260.882812 L 502.476562 260.882812 C 506.144531 260.882812 509.132812 263.867188 509.132812 267.539062 L 509.132812 305.035156 L 517.808594 305.035156 L 517.808594 267.539062 C 517.808594 259.082031 510.929688 252.203125 502.476562 252.203125 " fill="#a3ed40"/>
<path d="M 314.3125 305.035156 L 322.988281 305.035156 L 322.988281 252.203125 L 314.3125 252.203125 Z M 314.3125 305.035156 " fill="#a3ed40"/>
<path d="M 286.789062 252.203125 L 261.722656 252.203125 L 261.722656 260.882812 L 286.789062 260.882812 C 290.460938 260.882812 293.445312 263.867188 293.445312 267.539062 L 293.445312 280.230469 C 293.445312 283.898438 290.460938 286.882812 286.789062 286.882812 L 261.722656 286.882812 L 261.722656 305.035156 L 270.398438 305.035156 L 270.398438 295.5625 L 286.789062 295.5625 C 295.246094 295.5625 302.125 288.683594 302.125 280.230469 L 302.125 267.539062 C 302.125 259.082031 295.246094 252.203125 286.789062 252.203125 " fill="#a3ed40"/>
<path d="M 412.277344 281.089844 L 410.632812 287.566406 C 408.507812 295.910156 405.175781 296.292969 403.617188 296.355469 C 402.054688 296.292969 398.726562 295.910156 396.601562 287.566406 L 394.90625 280.902344 C 392.511719 271.488281 390.042969 261.796875 387.550781 252.207031 L 378.585938 252.207031 C 381.265625 262.484375 383.921875 272.925781 386.496094 283.042969 L 388.191406 289.707031 C 391.332031 302.039062 398.230469 304.847656 403.460938 305.035156 L 403.769531 305.035156 C 409.003906 304.847656 415.902344 302.039062 419.039062 289.707031 L 420.6875 283.230469 C 423.277344 273.046875 425.949219 262.542969 428.648438 252.207031 L 419.683594 252.207031 C 417.171875 261.859375 414.6875 271.613281 412.277344 281.089844 " fill="#a3ed40"/>
<path d="M 355.234375 241.117188 L 346.339844 241.117188 C 346.339844 247.28125 341.339844 252.28125 335.175781 252.28125 L 335.175781 261.175781 C 341.339844 261.175781 346.339844 266.175781 346.339844 272.339844 L 355.234375 272.339844 C 355.234375 266.175781 360.230469 261.175781 366.398438 261.175781 L 366.398438 252.28125 C 360.230469 252.28125 355.234375 247.28125 355.234375 241.117188 " fill="#a3ed40"/>
<path d="M 572.144531 274.199219 L 570.449219 267.53125 C 567.3125 255.203125 560.414062 252.394531 555.179688 252.207031 L 554.871094 252.207031 C 549.636719 252.394531 542.742188 255.203125 539.601562 267.53125 L 537.953125 274.011719 C 535.363281 284.191406 532.691406 294.695312 529.996094 305.035156 L 538.960938 305.035156 C 541.46875 295.382812 543.953125 285.625 546.363281 276.148438 L 548.011719 269.671875 C 550.136719 261.332031 553.464844 260.949219 555.027344 260.886719 C 556.585938 260.949219 559.917969 261.332031 562.042969 269.671875 L 563.738281 276.335938 C 566.132812 285.753906 568.597656 295.441406 571.09375 305.035156 L 580.058594 305.035156 C 577.378906 294.757812 574.71875 284.316406 572.144531 274.199219 " fill="#a3ed40"/>
<path d="M 554.816406 295.953125 C 549.820312 295.953125 545.773438 300.003906 545.773438 304.996094 C 545.773438 305.011719 545.773438 305.023438 545.773438 305.035156 L 563.859375 305.035156 C 563.859375 305.023438 563.859375 305.011719 563.859375 304.996094 C 563.859375 300.003906 559.8125 295.953125 554.816406 295.953125 " fill="#a3ed40"/>
<path d="M 514.722656 327.660156 L 505.582031 327.660156 C 505.363281 327.660156 505.238281 327.785156 505.238281 328 L 505.238281 345.097656 C 505.238281 345.3125 505.363281 345.4375 505.582031 345.4375 L 506.863281 345.4375 C 507.082031 345.4375 507.207031 345.3125 507.207031 345.097656 L 507.214844 337.3125 L 512.261719 337.3125 C 512.480469 337.3125 512.605469 337.1875 512.605469 336.96875 L 512.605469 335.921875 C 512.605469 335.707031 512.480469 335.582031 512.261719 335.582031 L 507.207031 335.574219 L 507.214844 329.390625 L 514.722656 329.390625 C 514.941406 329.390625 515.066406 329.265625 515.066406 329.046875 L 515.066406 328 C 515.066406 327.785156 514.941406 327.660156 514.722656 327.660156 " fill="#a3ed40"/>
<path d="M 517.496094 327.660156 L 516.214844 327.660156 C 515.996094 327.660156 515.871094 327.785156 515.871094 328 L 515.871094 345.097656 C 515.871094 345.3125 515.996094 345.4375 516.214844 345.4375 L 517.496094 345.4375 C 517.714844 345.4375 517.839844 345.3125 517.839844 345.097656 L 517.839844 328 C 517.839844 327.785156 517.714844 327.660156 517.496094 327.660156 " fill="#a3ed40"/>
<path d="M 528.074219 328.261719 C 527.285156 327.832031 526.050781 327.613281 525.019531 327.613281 C 523.984375 327.613281 522.90625 327.832031 522.117188 328.261719 C 521.328125 328.691406 520.707031 329.308594 520.273438 330.09375 C 519.839844 330.875 519.621094 331.78125 519.621094 332.789062 L 519.621094 340.332031 C 519.621094 341.339844 519.839844 342.246094 520.273438 343.019531 C 520.707031 343.792969 521.328125 344.40625 522.117188 344.835938 C 522.90625 345.265625 523.984375 345.480469 525.019531 345.480469 C 526.050781 345.480469 527.285156 345.265625 528.074219 344.835938 C 528.867188 344.40625 529.492188 343.792969 529.933594 343.019531 C 530.375 342.246094 530.597656 341.339844 530.597656 340.332031 L 530.597656 332.789062 C 530.597656 331.78125 530.375 330.875 529.933594 330.089844 C 529.492188 329.308594 528.867188 328.691406 528.074219 328.261719 M 528.628906 332.738281 L 528.628906 340.40625 C 528.628906 341.40625 528.324219 342.222656 527.726562 342.832031 C 527.125 343.441406 526.007812 343.753906 525.019531 343.753906 C 524.042969 343.753906 523.089844 343.441406 522.492188 342.832031 C 521.894531 342.222656 521.589844 341.40625 521.589844 340.40625 L 521.589844 332.738281 C 521.589844 331.722656 521.894531 330.894531 522.492188 330.277344 C 523.089844 329.65625 524.042969 329.34375 525.019531 329.34375 C 526.007812 329.34375 527.125 329.65625 527.726562 330.277344 C 528.324219 330.894531 528.628906 331.722656 528.628906 332.738281 " fill="#a3ed40"/>
<path d="M 537.535156 327.613281 C 535.996094 327.613281 534.578125 328.070312 533.636719 328.972656 C 532.691406 329.875 532.214844 331.09375 532.214844 332.589844 L 532.214844 340.480469 C 532.214844 341.980469 532.691406 343.199219 533.636719 344.109375 C 534.578125 345.019531 536.308594 345.484375 537.847656 345.484375 C 539.40625 345.484375 540.675781 345.027344 541.617188 344.125 C 542.5625 343.222656 543.039062 342.011719 543.039062 340.53125 L 543.039062 340.355469 C 543.039062 340.140625 542.914062 340.015625 542.699219 340.015625 L 541.414062 339.941406 C 541.195312 339.941406 541.070312 340.054688 541.070312 340.257812 L 541.070312 340.605469 C 541.070312 341.539062 540.769531 342.304688 540.183594 342.882812 C 539.589844 343.460938 538.808594 343.753906 537.847656 343.753906 C 536.890625 343.753906 535.640625 343.464844 535.058594 342.894531 C 534.480469 342.324219 534.183594 341.558594 534.183594 340.605469 L 534.183594 332.492188 C 534.183594 331.539062 534.480469 330.769531 535.058594 330.203125 C 535.644531 329.632812 536.578125 329.34375 537.535156 329.34375 C 538.492188 329.34375 539.589844 329.636719 540.179688 330.214844 C 540.769531 330.792969 541.070312 331.558594 541.070312 332.492188 L 541.070312 332.839844 C 541.070312 333.042969 541.195312 333.15625 541.417969 333.15625 L 542.695312 333.105469 C 542.914062 333.105469 543.039062 332.980469 543.039062 332.765625 L 543.039062 332.539062 C 543.039062 331.058594 542.5625 329.855469 541.617188 328.960938 C 540.675781 328.066406 539.09375 327.613281 537.535156 327.613281 " fill="#a3ed40"/>
<path d="M 552.507812 337.289062 L 552.507812 337.285156 C 553.472656 337.015625 554.25 336.464844 554.808594 335.65625 C 555.371094 334.847656 555.652344 333.703125 555.652344 332.558594 C 555.652344 331.605469 555.460938 330.742188 555.078125 330 C 554.695312 329.257812 554.152344 328.675781 553.460938 328.269531 C 552.773438 327.863281 551.976562 327.660156 551.089844 327.660156 L 545.140625 327.660156 C 544.921875 327.660156 544.796875 327.785156 544.796875 328 L 544.796875 345.097656 C 544.796875 345.316406 544.921875 345.4375 545.140625 345.4375 L 546.421875 345.4375 C 546.640625 345.4375 546.765625 345.316406 546.765625 345.097656 L 546.773438 337.46875 L 550.636719 337.46875 L 550.652344 337.484375 L 553.765625 345.179688 C 553.828125 345.351562 553.957031 345.4375 554.128906 345.4375 L 555.460938 345.4375 C 555.664062 345.4375 555.777344 345.332031 555.777344 345.148438 L 555.746094 345.011719 Z M 553.683594 332.558594 C 553.683594 333.496094 553.421875 334.417969 552.902344 334.996094 C 552.390625 335.570312 551.703125 335.863281 550.863281 335.863281 L 546.765625 335.855469 L 546.765625 329.394531 L 546.773438 329.390625 L 550.863281 329.390625 C 551.703125 329.390625 552.390625 329.679688 552.902344 330.253906 C 553.421875 330.832031 553.683594 331.609375 553.683594 332.558594 " fill="#a3ed40"/>
<path d="M 567.859375 327.660156 L 566.578125 327.660156 C 566.359375 327.660156 566.234375 327.785156 566.234375 328 L 566.234375 340.308594 C 566.234375 341.339844 565.929688 342.183594 565.328125 342.808594 C 564.730469 343.4375 563.699219 343.753906 562.726562 343.753906 C 561.753906 343.753906 560.722656 343.4375 560.125 342.808594 C 559.527344 342.183594 559.222656 341.339844 559.222656 340.308594 L 559.222656 328 C 559.222656 327.785156 559.097656 327.660156 558.878906 327.660156 L 557.597656 327.660156 C 557.378906 327.660156 557.253906 327.785156 557.253906 328 L 557.253906 340.207031 C 557.253906 341.25 557.472656 342.175781 557.902344 342.96875 C 558.335938 343.761719 558.957031 344.382812 559.75 344.824219 C 560.535156 345.261719 561.695312 345.480469 562.726562 345.480469 C 563.761719 345.480469 564.917969 345.261719 565.707031 344.824219 C 566.5 344.382812 567.117188 343.761719 567.550781 342.96875 C 567.984375 342.175781 568.203125 341.25 568.203125 340.207031 L 568.203125 328 C 568.203125 327.785156 568.078125 327.660156 567.859375 327.660156 " fill="#a3ed40"/>
<path d="M 578.925781 329.171875 L 578.925781 328 C 578.925781 327.785156 578.800781 327.660156 578.582031 327.660156 L 569.367188 327.660156 C 569.148438 327.660156 569.023438 327.785156 569.023438 328 L 569.023438 329.046875 C 569.023438 329.265625 569.148438 329.390625 569.367188 329.390625 L 576.734375 329.390625 L 569.105469 343.410156 C 569.050781 343.535156 569.023438 343.8125 569.023438 343.925781 L 569.023438 345.097656 C 569.023438 345.3125 569.148438 345.4375 569.367188 345.4375 L 578.582031 345.4375 C 578.800781 345.4375 578.925781 345.3125 578.925781 345.097656 L 578.925781 344.050781 C 578.925781 343.832031 578.800781 343.707031 578.582031 343.707031 L 571.214844 343.707031 L 578.84375 329.527344 C 578.898438 329.382812 578.925781 329.265625 578.925781 329.171875 " fill="#a3ed40"/>
<path d="M 500.703125 343.132812 C 500.695312 343.117188 500.6875 343.09375 500.671875 343.070312 L 500.65625 343.046875 C 500.640625 343.023438 500.621094 343.003906 500.597656 342.976562 L 500.058594 342.449219 L 500.058594 330.207031 L 500.503906 329.769531 L 500.503906 328.292969 C 500.507812 328.136719 500.496094 328.007812 500.414062 327.902344 C 500.320312 327.773438 500.171875 327.699219 500.015625 327.699219 L 499.25 327.699219 L 499.25 322.953125 C 499.25 322.789062 499.167969 322.632812 499.023438 322.539062 L 498.964844 322.503906 L 499.003906 322.445312 C 499.304688 321.953125 499.460938 321.394531 499.460938 320.828125 C 499.460938 319.503906 498.570312 318.289062 497.292969 317.875 L 497.253906 317.863281 L 497.015625 316.449219 C 496.949219 316.070312 496.632812 315.894531 496.34375 315.894531 C 496.070312 315.898438 495.761719 316.074219 495.691406 316.441406 L 495.429688 317.855469 L 495.390625 317.871094 C 494.101562 318.277344 493.203125 319.496094 493.203125 320.828125 C 493.203125 321.390625 493.359375 321.949219 493.65625 322.4375 L 493.691406 322.492188 L 493.636719 322.53125 C 493.5 322.621094 493.421875 322.777344 493.421875 322.941406 L 493.421875 326.703125 L 492.402344 326.703125 L 492.402344 324.289062 L 492.75 323.960938 L 492.75 322.730469 C 492.75 322.460938 492.527344 322.242188 492.253906 322.242188 L 490.816406 322.242188 C 490.714844 322.242188 490.589844 322.253906 490.519531 322.339844 L 490.230469 322.667969 L 489.785156 322.667969 L 489.902344 322.296875 C 489.9375 322.148438 489.898438 321.988281 489.796875 321.867188 C 489.699219 321.742188 489.550781 321.671875 489.390625 321.671875 L 484.375 321.671875 C 484.214844 321.671875 484.058594 321.746094 483.964844 321.867188 C 483.863281 321.992188 483.828125 322.15625 483.867188 322.324219 L 483.925781 322.667969 L 483.464844 322.667969 L 483.214844 322.339844 C 483.140625 322.253906 483.019531 322.234375 482.910156 322.234375 L 481.472656 322.234375 C 481.199219 322.234375 480.976562 322.457031 480.976562 322.726562 L 480.976562 323.960938 L 481.328125 324.289062 L 481.328125 326.703125 L 480.300781 326.703125 L 480.300781 322.953125 C 480.300781 322.785156 480.21875 322.632812 480.078125 322.542969 L 480.019531 322.503906 L 480.054688 322.445312 C 480.355469 321.953125 480.515625 321.394531 480.515625 320.828125 C 480.515625 319.503906 479.625 318.289062 478.347656 317.875 L 478.304688 317.859375 L 478.066406 316.449219 C 478 316.066406 477.675781 315.894531 477.402344 315.894531 C 477.058594 315.898438 476.800781 316.113281 476.746094 316.4375 L 476.484375 317.855469 L 476.441406 317.871094 C 475.15625 318.277344 474.257812 319.496094 474.257812 320.828125 C 474.257812 321.394531 474.414062 321.949219 474.710938 322.4375 L 474.746094 322.492188 L 474.691406 322.53125 C 474.554688 322.625 474.476562 322.773438 474.476562 322.941406 L 474.476562 327.707031 L 473.726562 327.707031 C 473.566406 327.707031 473.417969 327.78125 473.324219 327.90625 C 473.242188 328.015625 473.230469 328.144531 473.234375 328.28125 L 473.234375 329.769531 L 473.664062 330.167969 L 473.664062 342.449219 L 473.160156 342.988281 C 473.070312 343.082031 473.019531 343.199219 473.019531 343.332031 L 473.019531 345.003906 C 473.019531 345.277344 473.242188 345.5 473.519531 345.5 L 479.914062 345.5 L 480.980469 344.425781 L 492.75 344.425781 L 493.820312 345.5 L 500.242188 345.5 C 500.515625 345.5 500.742188 345.277344 500.742188 345.003906 L 500.742188 343.484375 C 500.742188 343.414062 500.726562 343.191406 500.703125 343.132812 M 499.4375 344.082031 L 494.40625 344.082031 L 493.324219 343.007812 L 480.339844 343.007812 L 479.257812 344.082031 L 474.441406 344.082031 L 474.441406 343.664062 L 475.089844 343.007812 L 475.089844 329.953125 L 474.664062 329.566406 L 474.664062 328.90625 L 475.902344 328.90625 L 475.902344 323.621094 L 476.3125 323.207031 L 476.3125 322.167969 C 476.257812 322.125 476.207031 322.078125 476.160156 322.027344 C 476.046875 321.921875 475.957031 321.800781 475.890625 321.660156 C 475.757812 321.421875 475.6875 321.148438 475.6875 320.859375 C 475.6875 319.925781 476.449219 319.171875 477.390625 319.171875 C 478.328125 319.171875 479.09375 319.925781 479.09375 320.859375 C 479.09375 321.234375 478.96875 321.582031 478.757812 321.863281 C 478.746094 321.882812 478.726562 321.90625 478.710938 321.925781 C 478.707031 321.933594 478.699219 321.9375 478.695312 321.945312 C 478.667969 321.976562 478.640625 322.007812 478.609375 322.039062 C 478.566406 322.082031 478.519531 322.125 478.472656 322.164062 L 478.472656 323.207031 L 478.875 323.613281 L 478.875 328.101562 L 481.980469 328.101562 L 482.746094 327.320312 L 482.746094 323.960938 L 485.480469 323.960938 L 485.480469 323.089844 L 488.25 323.089844 L 488.25 323.96875 L 490.980469 323.960938 L 490.980469 327.25 L 491.820312 328.101562 L 494.847656 328.101562 L 494.847656 323.609375 L 495.257812 323.203125 L 495.257812 322.171875 C 495.195312 322.121094 495.136719 322.066406 495.078125 322.003906 C 494.980469 321.914062 494.90625 321.808594 494.84375 321.6875 C 494.707031 321.441406 494.625 321.160156 494.625 320.859375 C 494.625 319.925781 495.390625 319.171875 496.328125 319.171875 C 497.269531 319.171875 498.03125 319.925781 498.03125 320.859375 C 498.03125 321.230469 497.910156 321.574219 497.707031 321.851562 C 497.6875 321.878906 497.667969 321.90625 497.648438 321.929688 C 497.644531 321.933594 497.640625 321.9375 497.636719 321.945312 C 497.609375 321.972656 497.585938 322.003906 497.554688 322.03125 C 497.511719 322.078125 497.464844 322.121094 497.417969 322.160156 L 497.417969 323.203125 L 497.824219 323.582031 L 497.824219 328.898438 L 499.082031 328.898438 L 499.082031 329.636719 L 498.628906 330.085938 L 498.628906 343.050781 L 499.4375 343.851562 Z M 499.4375 344.082031 " fill="#a3ed40"/>
<path d="M 502.476562 252.203125 L 489.785156 252.203125 C 485.472656 252.203125 481.578125 254 478.789062 256.875 C 476 254 472.105469 252.203125 467.792969 252.203125 L 455.101562 252.203125 C 446.648438 252.203125 439.769531 259.082031 439.769531 267.539062 L 439.769531 305.035156 L 448.445312 305.035156 L 448.445312 267.539062 C 448.445312 263.867188 451.433594 260.882812 455.101562 260.882812 L 467.792969 260.882812 C 471.464844 260.882812 474.449219 263.867188 474.449219 267.539062 L 474.449219 305.035156 L 483.128906 305.035156 L 483.128906 267.539062 C 483.128906 263.867188 486.113281 260.882812 489.785156 260.882812 L 502.476562 260.882812 C 506.144531 260.882812 509.132812 263.867188 509.132812 267.539062 L 509.132812 305.035156 L 517.808594 305.035156 L 517.808594 267.539062 C 517.808594 259.082031 510.929688 252.203125 502.476562 252.203125 " fill="#a3ed40"/>
<path d="M 314.3125 305.035156 L 322.988281 305.035156 L 322.988281 252.203125 L 314.3125 252.203125 Z M 314.3125 305.035156 " fill="#a3ed40"/>
<path d="M 286.789062 252.203125 L 261.722656 252.203125 L 261.722656 260.882812 L 286.789062 260.882812 C 290.460938 260.882812 293.445312 263.867188 293.445312 267.539062 L 293.445312 280.230469 C 293.445312 283.898438 290.460938 286.882812 286.789062 286.882812 L 261.722656 286.882812 L 261.722656 305.035156 L 270.398438 305.035156 L 270.398438 295.5625 L 286.789062 295.5625 C 295.246094 295.5625 302.125 288.683594 302.125 280.230469 L 302.125 267.539062 C 302.125 259.082031 295.246094 252.203125 286.789062 252.203125 " fill="#a3ed40"/>
<path d="M 412.277344 281.089844 L 410.632812 287.566406 C 408.507812 295.910156 405.175781 296.292969 403.617188 296.355469 C 402.054688 296.292969 398.726562 295.910156 396.601562 287.566406 L 394.90625 280.902344 C 392.511719 271.488281 390.042969 261.796875 387.550781 252.207031 L 378.585938 252.207031 C 381.265625 262.484375 383.921875 272.925781 386.496094 283.042969 L 388.191406 289.707031 C 391.332031 302.039062 398.230469 304.847656 403.460938 305.035156 L 403.769531 305.035156 C 409.003906 304.847656 415.902344 302.039062 419.039062 289.707031 L 420.6875 283.230469 C 423.277344 273.046875 425.949219 262.542969 428.648438 252.207031 L 419.683594 252.207031 C 417.171875 261.859375 414.6875 271.613281 412.277344 281.089844 " fill="#a3ed40"/>
<path d="M 355.234375 241.117188 L 346.339844 241.117188 C 346.339844 247.28125 341.339844 252.28125 335.175781 252.28125 L 335.175781 261.175781 C 341.339844 261.175781 346.339844 266.175781 346.339844 272.339844 L 355.234375 272.339844 C 355.234375 266.175781 360.230469 261.175781 366.398438 261.175781 L 366.398438 252.28125 C 360.230469 252.28125 355.234375 247.28125 355.234375 241.117188 " fill="#a3ed40"/>
<path d="M 572.144531 274.199219 L 570.449219 267.53125 C 567.3125 255.203125 560.414062 252.394531 555.179688 252.207031 L 554.871094 252.207031 C 549.636719 252.394531 542.742188 255.203125 539.601562 267.53125 L 537.953125 274.011719 C 535.363281 284.191406 532.691406 294.695312 529.996094 305.035156 L 538.960938 305.035156 C 541.46875 295.382812 543.953125 285.625 546.363281 276.148438 L 548.011719 269.671875 C 550.136719 261.332031 553.464844 260.949219 555.027344 260.886719 C 556.585938 260.949219 559.917969 261.332031 562.042969 269.671875 L 563.738281 276.335938 C 566.132812 285.753906 568.597656 295.441406 571.09375 305.035156 L 580.058594 305.035156 C 577.378906 294.757812 574.71875 284.316406 572.144531 274.199219 " fill="#a3ed40"/>
<path d="M 554.816406 295.953125 C 549.820312 295.953125 545.773438 300.003906 545.773438 304.996094 C 545.773438 305.011719 545.773438 305.023438 545.773438 305.035156 L 563.859375 305.035156 C 563.859375 305.023438 563.859375 305.011719 563.859375 304.996094 C 563.859375 300.003906 559.8125 295.953125 554.816406 295.953125 " fill="#a3ed40"/>
<path d="M 411.691406 345.777344 L 404.53125 334.375 L 408.597656 333.550781 L 411.691406 338.175781 L 415.910156 331.859375 L 420.910156 330.699219 Z M 411.691406 345.777344 " fill="#a3ed40"/>
<path d="M 428.109375 339.046875 L 425.96875 339.046875 L 428.109375 332.449219 L 430.25 339.046875 Z M 431.238281 327.761719 L 424.984375 327.761719 L 418.160156 345.777344 L 423.828125 345.777344 L 424.914062 342.988281 L 431.304688 342.988281 L 432.394531 345.777344 L 438.058594 345.777344 Z M 431.238281 327.761719 " fill="#a3ed40"/>
<path d="M 351.101562 344.765625 C 351.765625 344.917969 352.441406 344.996094 353.136719 344.996094 C 354.367188 344.996094 355.328125 344.800781 356.023438 344.402344 C 356.71875 344.007812 357.234375 343.460938 357.5625 342.761719 C 357.894531 342.0625 358.058594 341.296875 358.058594 340.472656 C 358.058594 339.238281 357.710938 338.25 357.007812 337.503906 C 356.308594 336.761719 354.796875 336.390625 352.46875 336.390625 C 352.082031 336.390625 351.617188 336.410156 351.078125 336.441406 L 351.078125 340.835938 Z M 351.078125 335.375 C 351.507812 335.40625 351.992188 335.425781 352.535156 335.425781 C 354.3125 335.425781 355.546875 335.105469 356.242188 334.472656 C 356.9375 333.835938 357.285156 332.964844 357.285156 331.855469 C 357.285156 331.210938 357.152344 330.664062 356.886719 330.214844 C 356.621094 329.761719 356.203125 329.417969 355.628906 329.175781 C 355.058594 328.9375 354.285156 328.816406 353.304688 328.816406 C 352.507812 328.816406 351.804688 328.882812 351.191406 329.007812 C 351.117188 329.78125 351.078125 331.132812 351.078125 333.054688 Z M 346.453125 328.609375 L 346.351562 328.519531 L 346.351562 327.875 L 346.453125 327.785156 C 347.921875 327.855469 349.054688 327.890625 349.855469 327.890625 C 350.152344 327.890625 351.34375 327.855469 353.421875 327.785156 C 354.089844 327.769531 354.578125 327.761719 354.878906 327.761719 C 356.035156 327.761719 356.957031 327.875 357.632812 328.109375 C 358.3125 328.339844 358.859375 328.75 359.269531 329.339844 C 359.683594 329.925781 359.886719 330.59375 359.886719 331.339844 C 359.886719 332.292969 359.542969 333.179688 358.859375 333.996094 C 358.171875 334.8125 357.054688 335.394531 355.507812 335.746094 C 356.4375 335.832031 357.199219 335.957031 357.800781 336.121094 C 358.402344 336.285156 358.921875 336.535156 359.359375 336.875 C 359.796875 337.214844 360.144531 337.652344 360.398438 338.195312 C 360.652344 338.734375 360.777344 339.363281 360.777344 340.074219 C 360.777344 340.632812 360.691406 341.199219 360.519531 341.773438 C 360.347656 342.351562 360.03125 342.921875 359.574219 343.488281 C 359.113281 344.054688 358.558594 344.539062 357.90625 344.945312 C 357.25 345.347656 356.585938 345.640625 355.902344 345.820312 C 355.21875 346 354.371094 346.089844 353.355469 346.089844 C 353.152344 346.089844 352.53125 346.070312 351.503906 346.027344 C 350.359375 346 349.742188 345.988281 349.648438 345.988281 C 349.0625 345.988281 348.347656 346.023438 347.496094 346.089844 L 347.390625 345.988281 L 347.390625 345.5625 L 347.496094 345.433594 C 347.992188 345.210938 348.28125 345.054688 348.359375 344.96875 C 348.4375 344.882812 348.5 344.125 348.546875 342.691406 C 348.59375 341.253906 348.617188 340.160156 348.617188 339.40625 L 348.617188 334.675781 L 348.605469 331.753906 C 348.605469 331.117188 348.59375 330.601562 348.578125 330.199219 C 348.558594 329.800781 348.539062 329.515625 348.507812 329.34375 C 348.476562 329.171875 348.425781 329.050781 348.359375 328.984375 C 348.289062 328.914062 348.195312 328.855469 348.070312 328.808594 C 347.945312 328.761719 347.730469 328.722656 347.429688 328.6875 Z M 346.453125 328.609375 " fill="#a3ed40"/>
<path d="M 367.050781 333.710938 L 367.296875 333.878906 C 367.242188 334.378906 367.207031 335.261719 367.179688 336.535156 L 368.144531 335.308594 C 368.460938 334.90625 368.746094 334.59375 368.988281 334.375 C 369.234375 334.15625 369.519531 333.988281 369.847656 333.867188 C 370.171875 333.746094 370.507812 333.6875 370.851562 333.6875 C 371.226562 333.6875 371.585938 333.761719 371.917969 333.917969 L 372.011719 334.097656 C 371.871094 335.242188 371.796875 336.246094 371.777344 337.113281 L 371.199219 337.113281 C 370.855469 336.324219 370.300781 335.925781 369.535156 335.925781 C 369.003906 335.925781 368.539062 336.097656 368.144531 336.4375 C 367.75 336.777344 367.484375 337.199219 367.351562 337.710938 C 367.21875 338.222656 367.152344 338.867188 367.152344 339.652344 L 367.152344 341.078125 C 367.152344 341.335938 367.171875 341.96875 367.207031 342.972656 C 367.238281 343.976562 367.277344 344.558594 367.3125 344.710938 C 367.351562 344.867188 367.414062 344.980469 367.496094 345.054688 C 367.578125 345.125 367.683594 345.175781 367.816406 345.203125 C 367.949219 345.226562 368.5625 345.269531 369.652344 345.332031 L 369.769531 345.433594 L 369.769531 345.976562 L 369.652344 346.089844 C 368.511719 346.023438 367.316406 345.988281 366.070312 345.988281 C 365.082031 345.988281 364.054688 346.023438 362.980469 346.089844 L 362.863281 345.976562 L 362.863281 345.433594 L 362.980469 345.332031 C 363.8125 345.28125 364.28125 345.242188 364.390625 345.214844 C 364.496094 345.191406 364.59375 345.136719 364.671875 345.054688 C 364.753906 344.972656 364.8125 344.847656 364.839844 344.679688 C 364.871094 344.515625 364.90625 343.960938 364.945312 343.019531 C 364.984375 342.078125 365.003906 341.367188 365.003906 340.886719 L 365.003906 338.347656 C 365.003906 338.003906 364.984375 337.539062 364.949219 336.945312 C 364.917969 336.351562 364.886719 335.988281 364.867188 335.851562 C 364.84375 335.710938 364.777344 335.613281 364.667969 335.546875 C 364.554688 335.484375 364.332031 335.449219 363.996094 335.449219 L 362.914062 335.4375 L 362.800781 335.335938 L 362.800781 334.78125 L 362.902344 334.675781 C 364.542969 334.480469 365.925781 334.160156 367.050781 333.710938 " fill="#a3ed40"/>
<path d="M 381.234375 339.289062 C 378.828125 339.691406 377.332031 340.125 376.738281 340.589844 C 376.144531 341.054688 375.847656 341.773438 375.847656 342.742188 C 375.847656 344.082031 376.515625 344.75 377.84375 344.75 C 378.988281 344.75 380.117188 344.089844 381.234375 342.765625 Z M 375.257812 337.253906 L 374.753906 337.125 L 374.652344 336.996094 L 374.652344 335.398438 C 376.179688 334.265625 377.664062 333.699219 379.109375 333.699219 C 380.097656 333.699219 380.914062 333.882812 381.570312 334.253906 C 382.222656 334.621094 382.695312 335.082031 382.984375 335.636719 C 383.277344 336.191406 383.421875 336.835938 383.421875 337.578125 L 383.359375 340.164062 L 383.359375 344.003906 C 383.359375 344.527344 383.394531 344.847656 383.46875 344.957031 C 383.542969 345.070312 383.625 345.144531 383.71875 345.183594 C 383.8125 345.222656 383.988281 345.253906 384.246094 345.277344 L 384.980469 345.34375 L 385.085938 345.460938 L 385.085938 345.976562 L 384.980469 346.078125 C 384.355469 346.027344 383.769531 346 383.230469 346 C 382.714844 346 382.097656 346.027344 381.375 346.078125 L 381.183594 345.898438 L 381.234375 343.824219 L 378.425781 346.011719 C 377.953125 346.210938 377.4375 346.308594 376.878906 346.308594 C 376.191406 346.308594 375.601562 346.183594 375.109375 345.9375 C 374.613281 345.6875 374.238281 345.339844 373.976562 344.894531 C 373.710938 344.445312 373.582031 343.90625 373.582031 343.269531 C 373.582031 342.007812 373.976562 341.023438 374.765625 340.3125 C 375.558594 339.605469 377.710938 339 381.234375 338.503906 C 381.234375 337.234375 380.949219 336.339844 380.382812 335.816406 C 379.816406 335.296875 379.058594 335.039062 378.101562 335.039062 C 377.605469 335.039062 377.152344 335.113281 376.746094 335.257812 C 376.335938 335.402344 376.101562 335.523438 376.042969 335.613281 C 375.980469 335.703125 375.75 336.226562 375.347656 337.191406 Z M 375.257812 337.253906 " fill="#a3ed40"/>
<path d="M 453.539062 327.757812 L 450.410156 338.644531 L 447.285156 327.757812 L 439.941406 327.757812 L 439.941406 345.777344 L 444.429688 345.777344 L 444.429688 332.179688 L 444.835938 332.179688 L 448.167969 345.777344 L 452.65625 345.777344 L 455.988281 332.179688 L 456.394531 332.179688 L 456.394531 345.777344 L 460.882812 345.777344 L 460.882812 327.757812 Z M 453.539062 327.757812 " fill="#a3ed40"/>
<path d="M 396.953125 340.871094 C 396.3125 341.527344 395.378906 341.855469 394.152344 341.855469 C 392.917969 341.855469 391.980469 341.527344 391.34375 340.867188 C 390.703125 340.207031 390.386719 339.289062 390.386719 338.109375 L 390.386719 335.375 C 390.386719 334.191406 390.707031 333.269531 391.347656 332.613281 C 391.988281 331.957031 392.921875 331.628906 394.152344 331.628906 C 395.382812 331.628906 396.320312 331.957031 396.957031 332.609375 C 397.59375 333.261719 397.921875 334.375 397.921875 334.375 L 400.132812 333.449219 L 398.601562 327.890625 C 397.355469 327.480469 395.871094 327.242188 394.191406 327.230469 C 386.910156 327.183594 385.546875 333.265625 385.546875 334.375 L 385.546875 338.648438 C 385.546875 341.902344 388.0625 345.164062 390.578125 345.777344 C 401.480469 348.429688 402.832031 340.203125 402.832031 340.203125 L 397.992188 338.648438 C 397.949219 338.824219 397.59375 340.214844 396.953125 340.871094 " fill="#a3ed40"/>
<path d="M 411.421875 346.304688 C 411.421875 346.304688 403.335938 348.394531 401.445312 348.394531 C 399.554688 348.394531 396.699219 348.191406 395.78125 348.394531 C 394.863281 348.597656 384.050781 351.761719 384.460938 352.066406 C 384.867188 352.371094 406.972656 353.699219 408.414062 353.390625 C 409.855469 353.085938 418.589844 349.773438 418.160156 349.871094 C 416.789062 350.179688 414.019531 349.855469 413.398438 349.597656 C 412.40625 349.1875 410.773438 347.070312 411.421875 346.304688 " fill="#a3ed40"/>
<path d="M 413.089844 321.09375 C 415.046875 321.171875 416.566406 321.300781 417.710938 321.492188 C 416.691406 319.425781 414.566406 318.003906 412.109375 318.003906 C 408.914062 318.003906 406.273438 320.421875 405.910156 323.523438 C 408.316406 321.894531 410.558594 321.089844 412.75 321.089844 C 412.863281 321.089844 412.976562 321.089844 413.089844 321.09375 " fill="#a3ed40"/>
<path d="M 410.039062 329.632812 L 409.828125 330.050781 C 410.535156 330.332031 411.304688 330.492188 412.109375 330.492188 C 415.53125 330.492188 418.3125 327.726562 418.351562 324.316406 C 416.417969 324.511719 414.972656 324.765625 413.9375 325.089844 C 412.03125 325.679688 410.972656 327.78125 410.039062 329.632812 " fill="#a3ed40"/>
<path d="M 418.292969 323.410156 C 418.277344 323.277344 418.257812 323.140625 418.230469 323.011719 C 418.195312 322.832031 418.152344 322.65625 418.101562 322.484375 C 418.152344 322.65625 418.195312 322.832031 418.230469 323.011719 C 418.257812 323.140625 418.277344 323.277344 418.292969 323.410156 " fill="#a3ed40"/>
<path d="M 405.964844 325.320312 C 405.964844 325.324219 405.964844 325.328125 405.96875 325.328125 C 406.183594 326.554688 406.757812 327.660156 407.578125 328.527344 C 406.757812 327.660156 406.183594 326.554688 405.96875 325.328125 C 405.96875 325.328125 405.964844 325.324219 405.964844 325.320312 " fill="#a3ed40"/>
<path d="M 409.011719 329.660156 C 409.011719 329.65625 409.011719 329.65625 409.011719 329.65625 C 408.996094 329.648438 408.984375 329.640625 408.96875 329.632812 C 408.984375 329.640625 408.996094 329.648438 409.011719 329.660156 " fill="#a3ed40"/>
<path d="M 405.890625 324.695312 C 405.886719 324.675781 405.886719 324.660156 405.886719 324.640625 C 405.882812 324.640625 405.882812 324.640625 405.882812 324.644531 C 405.882812 324.660156 405.886719 324.675781 405.890625 324.695312 " fill="#a3ed40"/>
<path d="M 405.964844 325.320312 C 405.964844 325.324219 405.96875 325.328125 405.96875 325.328125 C 406.183594 326.554688 406.757812 327.660156 407.578125 328.527344 C 407.851562 328.820312 408.15625 329.082031 408.480469 329.316406 C 408.636719 329.429688 408.800781 329.53125 408.96875 329.632812 C 408.980469 329.640625 408.996094 329.648438 409.011719 329.65625 C 410.066406 327.589844 411.226562 324.980469 413.664062 324.222656 C 415.058594 323.789062 416.898438 323.550781 418.292969 323.410156 C 418.273438 323.277344 418.257812 323.140625 418.230469 323.011719 C 418.195312 322.832031 418.152344 322.65625 418.101562 322.484375 C 416.894531 322.234375 415.1875 322.085938 413.054688 322.003906 C 412.953125 322 412.851562 321.996094 412.75 321.996094 C 410.0625 321.996094 407.628906 323.378906 405.886719 324.640625 C 405.886719 324.660156 405.886719 324.675781 405.890625 324.695312 C 405.90625 324.90625 405.929688 325.117188 405.964844 325.320312 " fill="#a3ed40"/>
<path d="M 423.792969 315.894531 L 414.726562 317.453125 C 415.964844 317.921875 417.042969 318.71875 417.851562 319.738281 L 424.222656 319.738281 L 423.140625 321.328125 L 416.667969 330.851562 L 425.40625 328.828125 Z M 423.792969 315.894531 " fill="#a3ed40"/>
<path d="M 406.472656 319.738281 C 406.773438 319.359375 407.109375 319.011719 407.480469 318.699219 L 401.445312 319.738281 Z M 406.472656 319.738281 " fill="#a3ed40"/>
<path d="M 397.59375 320.398438 L 401.445312 334.375 L 408.066406 332.84375 L 400.242188 321.328125 L 399.398438 320.089844 Z M 397.59375 320.398438 " fill="#a3ed40"/>
<path d="M 412.160156 331.515625 C 410.585938 331.515625 409.128906 331.003906 407.933594 330.148438 C 407.488281 329.828125 407.082031 329.457031 406.71875 329.046875 L 409.132812 332.597656 L 409.441406 333.050781 L 409.746094 333.5 L 411.691406 336.359375 L 414.359375 332.433594 L 415.203125 331.191406 L 415.558594 330.671875 C 414.542969 331.210938 413.386719 331.515625 412.160156 331.515625 " fill="#a3ed40"/>
<path d="M 404.894531 324.25 C 404.894531 322.984375 405.21875 321.792969 405.792969 320.757812 L 401.085938 320.757812 L 405.683594 327.519531 C 405.367188 326.894531 405.136719 326.21875 405.011719 325.507812 C 404.941406 325.097656 404.894531 324.679688 404.894531 324.25 " fill="#a3ed40"/>
<path d="M 422.296875 320.757812 L 418.53125 320.757812 C 418.878906 321.390625 419.136719 322.082031 419.285156 322.8125 C 419.316406 322.980469 419.339844 323.152344 419.363281 323.324219 C 419.402344 323.628906 419.425781 323.933594 419.425781 324.25 C 419.425781 324.519531 419.414062 324.78125 419.382812 325.042969 Z M 422.296875 320.757812 " fill="#a3ed40"/>
</svg>
